<?xml version="1.0" encoding="UTF-8"?>
<svg id="Layer_2" data-name="Layer 2" xmlns="http://www.w3.org/2000/svg" viewBox="0 0 920.37 310.43">
  <defs>
    <style>
      .cls-1 {
        fill: #4313C8;
      }
      .cls-green {
        fill: #2E9D6F;
      }
      .cls-coral {
        fill: #E57373;
      }
      .cls-blue {
        fill: #4361B8;
      }
    </style>
  </defs>
  <g id="Layer_1-2" data-name="Layer 1">
    <path class="cls-1" d="m118.06,76c-.09.46-.22.84-.22,1.21-.01,8-.67,16.06.12,23.98,1.76,17.75.21,35.5.87,53.24.08,2.05-.51,2.82-2.63,2.7-2.99-.16-6-.1-8.99-.02-1.58.04-2.33-.43-2.19-2.12.1-1.24.09-2.5-.02-3.74-.05-.58-.46-1.13-.71-1.69-.59.33-1.5.51-1.74,1-2.97,6.15-8.38,8.24-14.59,8.21-11.06-.07-18.47-5.94-19.24-17.97-.75-11.7-.29-23.48-.43-35.22-.02-1.85.65-2.49,2.49-2.42,2.91.12,5.84.16,8.74-.01,2.08-.12,2.51.77,2.5,2.62-.06,8.83-.06,17.66,0,26.49.01,2.07.12,4.19.55,6.2.99,4.66,4.28,7.43,8.85,7.78,6.12.47,10.42-1.61,12.05-6.63,1.05-3.26,1.23-6.83,1.53-10.29.23-2.65-.03-5.33.07-7.99.07-1.77-.66-2.39-2.36-2.3-1.58.09-3.17-.05-4.75.03-1.48.08-2.2-.47-2.09-2,.04-.58,0-1.17,0-1.75,0-36.65,0-73.31,0-109.96q0-3.62,3.67-3.62c5.98,0,11.96,0,18.14,0,.1,1.75.18,3.3.29,5.13,1.93-1.14,3.6-2.3,5.41-3.18,13.2-6.36,25.66-4.27,36.96,4.28,12.19,9.22,17.04,22.15,15.87,37.1-1.44,18.27-14.57,33.91-32.55,37.09-9.03,1.6-17.55.46-24.77-5.88-.16-.14-.43-.16-.83-.29Zm36.03-34.16c.23-10.57-7.12-18.93-17.39-19.78-10.61-.88-19.32,6.97-19.75,18.18-.3,7.69,2.16,14.46,9.28,18.31,12.94,7,27.53-1.88,27.86-16.72Z"/>
    <path class="cls-1" d="m222.46,59.69c7.26,3.41,18.31.33,24-6.54,5.69,4.37,11.38,8.75,17.68,13.59-2.7,2.57-5.03,5.24-7.8,7.33-6.87,5.19-14.75,7.89-23.33,8.45-2.06.13-2.88.75-2.8,2.97.17,4.99.18,10,0,14.99-.08,2.3.74,2.82,2.86,2.75,4.66-.14,9.33.07,13.99-.09,2.27-.08,2.91.72,2.78,2.87-.17,2.66-.12,5.33-.01,7.99.07,1.67-.6,2.18-2.18,2.16-4.66-.06-9.33-.03-14-.01-.99,0-1.97.08-3.12.13-.1.76-.25,1.39-.25,2.02-.02,7.33-.03,14.66,0,21.99.01,3.04.83,3.86,3.85,3.89,3.83.04,7.67.07,11.5-.01,1.56-.03,2.26.38,2.2,2.09-.11,3.47-.03,6.96-.03,10.62-1.07.07-1.88.18-2.68.18-6.75.01-13.5.03-20.25,0-5.17-.02-8.25-2.99-8.29-8.19-.08-9.91-.1-19.83,0-29.74.02-2.26-.61-3.14-2.95-3.03-3.58.16-7.16-.01-10.75.06-1.63.03-2.44-.38-2.38-2.22.12-3.47.03-6.95.03-10.76,4.53,0,8.76-.14,12.97.05,2.48.11,3.13-.81,3.07-3.15-.14-5.5-.13-11,0-16.49.04-1.9-.59-2.87-2.36-3.46-16.95-5.67-29.05-22.33-28.09-40.7,1.03-19.76,15.7-35.86,34.17-38.68,19.73-3.01,36.88,6.29,45.47,24.4.86,1.81.82,2.98-1.03,4.28-13.06,9.2-26.03,18.53-39.02,27.82-1,.71-1.96,1.48-3.24,2.44Zm-13.25-12.68c9.88-7.03,19.5-13.89,29.2-20.79-5.67-5.09-14.22-5.53-21.14-1.32-7.02,4.27-10.34,12.97-8.05,22.11Z"/>
    <path class="cls-1" d="m870.21,103.21c4.17,0,8.15,0,12.13,0,1.75,0,1.43,1.27,1.44,2.3.02,9.83,0,19.66.05,29.5,0,1.31.19,2.66.53,3.93,1.07,4.08,4.09,6.84,7.96,7.27,4.71.51,9.26-.03,11.73-4.63,1.37-2.54,2.31-5.61,2.4-8.48.31-9.07.18-18.16.09-27.24-.02-2.06.57-2.78,2.67-2.7,3.57.15,7.15.04,10.99.04.06,1.07.15,1.94.15,2.82,0,21.16.02,42.33,0,63.49,0,6.57-2.9,9.46-9.43,9.5-2.58.02-5.17.03-7.75,0-1.16-.01-1.9.23-1.89,1.63.05,3.91.02,7.81.02,12.13,1.37,0,2.58,0,3.78,0,4.33,0,8.67.04,13-.02,1.38-.02,1.97.43,1.96,1.84-.03,5.5-.04,11,0,16.5.01,1.59-.72,1.94-2.15,1.92-4.5-.06-9-.02-13.5-.02-.9,0-1.8,0-2.96,0-.06,1.1-.15,1.99-.15,2.87-.01,7.42-.02,14.83,0,22.25.01,6.34,3.19,10.72,9.34,12.53,2.45.72,5.06.88,7.56,1.45.6.14,1.51.9,1.51,1.38.11,6,.08,12,.07,18,0,.74-.06,1.47-.1,2.19-15.87.5-33.56-7.12-38.77-23.85-1.19-3.83-1.59-8-1.74-12.04-.27-7.24-.08-14.5-.08-21.75v-2.96h-11.82v-20.24h11.82c0-2.64.15-4.97-.04-7.26-.2-2.31.31-4.05,2.56-5.05.4-.18.69-.63,1.29-1.2-1.09-.21-1.86-.35-2.94-.55,0-3.77-.07-7.59.1-11.39.02-.43,1.43-1.12,2.21-1.13,6.41-.1,12.83-.06,19.25-.07,4.36,0,5.03-.69,5.04-5.09,0-3.33.03-6.67-.04-10-.01-.52-.53-1.03-.81-1.55-.51.32-1.29.53-1.49.99-3.31,7.48-11.71,9.14-19.29,7.82-7.54-1.31-12.83-6.87-14.31-14.79-.38-2.03-.55-4.13-.57-6.19-.06-10.75-.04-21.5-.04-32.25,0-.49.09-.98.18-1.91Z"/>
    <path class="cls-1" d="m454.46,198.15c.09-1.99.17-3.53.25-5.22h21.47v78.96h-21.45c-.09-1.62-.17-3.16-.25-4.76-.34.02-.65-.07-.79.05-9.69,8.01-20.68,8.52-31.68,4.19-16.68-6.57-25.12-19.63-25.87-37.35-.66-15.54,5.61-28.12,18.58-36.72,11.28-7.48,23.36-8.51,35.61-1.88,1.3.7,2.48,1.62,4.14,2.73Zm-36.15,34.13c-.12,11.18,7.91,19.88,18.65,19.75,11.07-.13,18.26-7.72,18.51-19.25.24-11.13-7.86-19.69-18.15-19.73-10.62-.04-18.89,8.33-19.01,19.23Z"/>
    <path class="cls-1" d="m643.14,197.81v-5.02c7.04,0,13.85-.02,20.65.05.41,0,.99.72,1.17,1.21.21.6.09,1.32.09,1.98,0,24.24,0,48.48,0,72.71,0,3.29-.01,3.29-3.27,3.3-6.07,0-12.15,0-18.51,0-.09-1.77-.17-3.38-.27-5.47-1.05.9-1.77,1.62-2.59,2.2-5.52,3.9-11.75,5.3-18.39,4.99-10.08-.48-18.68-4.36-25.68-11.64-12.01-12.5-15.09-31.41-7.92-47.24,4.78-10.55,12.49-18.01,23.35-21.8,10.49-3.66,20.6-2.36,29.86,4.07.27.19.53.4.8.58.06.04.15.02.71.07Zm.95,35.07c.17-11.15-7.53-19.63-18.01-19.85-10.54-.22-19.04,8.33-19.23,19.34-.19,10.89,7.93,19.64,18.85,19.65,11.19,0,18.09-8.36,18.39-19.14Z"/>
    <path class="cls-1" d="m279.78,1.86h21.86c.1,1.63.19,3.24.26,4.4,3.78-1.65,7.45-3.87,11.43-4.89,19.45-5,38.09,5.49,43.78,24.79,1.6,5.43,2.34,11.24,2.57,16.92.4,10.23.11,20.5.11,30.75v2.87c4.09.03,7.62.93,10.1,4.22,1.76,2.33,2.26,4.99,1.88,7.81-.72,5.35-6.22,9.57-11.31,8.67-3.62-.64-6.58-2.31-8.18-5.84-1.55-3.4-.99-6.77.56-10.46h-14.82v-3.25c0-11.33.15-22.67-.08-34-.08-3.93-.51-8.08-1.88-11.72-3.66-9.69-14.18-12.21-22.93-8.55-7.78,3.25-11.29,9.46-11.32,17.72-.05,12.25-.01,24.5-.01,36.75,0,.9,0,1.79,0,2.86h-22.02V1.86Z"/>
    <path class="cls-1" d="m703.34,272.04c-7.04,0-13.69.03-20.34-.06-.5,0-1.23-.85-1.43-1.45-.25-.75-.08-1.65-.08-2.48,0-35.73,0-71.47,0-107.2q0-3.74-3.64-3.75c-2.08,0-4.17-.07-6.25.02-1.57.06-2.29-.47-2.24-2.13.08-2.83.08-5.67,0-8.49-.05-1.72.57-2.34,2.32-2.3,4.75.09,9.5-.01,14.24.05,1.55.02,2.23-.38,2.22-2.09-.06-15.58-.04-31.15-.05-46.73,0-.33-.08-.65-.17-1.28-.86-.05-1.73-.13-2.61-.13-4.41-.01-8.83-.07-13.24.02-1.65.03-2.22-.57-2.18-2.17.07-3-.07-6,.09-8.99.04-.7.93-1.94,1.44-1.94,9.91-.08,19.82-.02,29.72.03.14,0,.28.16.71.41,0,.9,0,1.96,0,3.02,0,18.91.05,37.82-.06,56.72-.01,2.59.77,3.3,3.26,3.17,3.99-.2,8,.02,11.99-.08,1.77-.04,2.62.44,2.55,2.36-.11,2.74-.08,5.5,0,8.24.05,1.7-.58,2.38-2.33,2.33-3.5-.1-7-.03-10.49-.02q-3.45,0-3.45,3.39c0,35.98,0,71.97,0,107.95,0,1.07,0,2.14,0,3.6Z"/>
    <path class="cls-1" d="m41.27.18c22.97.01,41.54,18.57,41.57,41.42.03,21.85-18,41.36-41.94,41.2C17.07,82.65-.05,63.28,0,41.27.05,18.76,18.65-.25,41.27.18Zm-18.97,41.17c-.04,11.21,7.85,19.61,18.78,19.61,10.86,0,19.25-7.3,19.33-19.36.08-12.06-8.55-19.4-19.19-19.56-10.55-.16-18.88,8.46-18.92,19.31Z"/>
    <path class="cls-1" d="m514.8,272.05c-3.98,0-7.7,0-11.42,0-2.67,0-5.34-.12-8,.04-2.05.12-2.55-.73-2.53-2.6.06-9.66.03-19.33.03-28.99,0-14.91.05-29.83-.05-44.74-.02-2.44.71-3.09,3.1-3.03,6.15.17,12.31.06,18.72.06.1,1.73.2,3.33.27,4.56,3.65-1.64,7.18-3.69,10.97-4.84,16.25-4.94,33.78,2.85,41.54,18,3.41,6.66,4.92,13.72,5.35,21.09.04.75.02,1.5.02,2.25,0,12.58,0,25.15,0,37.98h-21.64c-.04-1-.13-1.97-.13-2.94,0-11.5.15-23-.09-34.49-.08-3.84-.52-7.94-1.97-11.44-4.07-9.82-15.88-12.88-25.48-7.03-5.64,3.44-8.52,8.64-8.61,15.13-.17,12.58-.07,25.16-.08,37.74,0,.98,0,1.96,0,3.27Z"/>
    <path class="cls-1" d="m802.7,192.78c-1.79,3.98-3.37,7.61-5.04,11.2-7.26,15.58-14.57,31.13-21.83,46.71-8,17.15-15.96,34.32-23.97,51.48-1.22,2.62-1.94,6.12-4.03,7.51-1.99,1.33-5.46.49-8.28.52-4.48.04-8.97.01-14,.01,1.94-4.24,3.67-8.06,5.44-11.85,5.02-10.76,10.1-21.49,15.03-32.29.38-.83.09-2.24-.36-3.15-9.91-20.06-19.89-40.08-29.85-60.12-1.58-3.18-3.09-6.4-4.83-10.01,3.3,0,6.26,0,9.22,0,4.25,0,8.5.07,12.75-.04,1.57-.04,2.39.49,3.04,1.9,5.07,11.02,10.2,22,15.32,33,2.2,4.73,4.43,9.44,6.91,14.72.5-1.02.77-1.53,1.01-2.06,5.83-12.67,11.66-25.33,17.49-38,1.21-2.64,2.32-5.33,3.65-7.91.36-.71,1.36-1.53,2.08-1.54,6.58-.12,13.16-.07,20.26-.07Z"/>
    <path class="cls-1" d="m823.02,248.67c2.83,2.65,6.05,3.59,9.58,3.31,3.13-.25,4.9-1.92,5.36-4.67.41-2.43-.85-4.92-3.5-5.99-2.13-.86-4.45-1.25-6.69-1.79-9.13-2.19-16.59-6.73-20.08-15.83-4.19-10.93-.32-21.23,9.98-28,12.63-8.3,29.32-5.01,37.74,7.66-3.92,2.87-7.85,5.75-11.79,8.63-.2.15-.45.24-.62.41-1.84,1.88-3.6,2.37-5.94.49-1.94-1.56-4.53-2.15-6.8-.79-1.16.69-2.38,2.31-2.43,3.56-.05,1.24,1.08,3.28,2.15,3.66,3.25,1.15,6.74,1.63,10.12,2.42,5.39,1.26,10.41,3.16,14.68,6.96,8.9,7.92,9.42,24.29,2.19,33.59-5.44,7-12.73,10.44-21.39,11.3-10.38,1.03-19.81-1.25-27.86-8.17-1.07-.92-2.14-1.84-3.54-3.05,6.53-4.74,12.63-9.16,18.86-13.69Z"/>
    <path class="cls-1" d="m547.31,156.9h-13.57c-.05-.99-.12-1.8-.12-2.62,0-23.5.03-46.99-.06-70.49,0-2.45.72-3.2,3.09-3.02,2.57.19,5.17.18,7.74,0,2.22-.15,3.02.45,2.98,2.85-.16,8.25-.08,16.5-.02,24.74,0,.89.5,1.77.77,2.65.73-.56,1.65-.99,2.15-1.71,4.53-6.57,12.88-9.25,21.83-6.93,7.81,2.03,13.07,7.11,15.61,14.52,3.44,10.01,3.39,20.12-1.34,29.85-5.67,11.69-19.8,14.67-29.71,9.89-2.54-1.23-4.36-3.94-6.56-5.92-.56-.5-1.29-.81-1.94-1.2-.28.69-.76,1.37-.81,2.08-.12,1.65-.04,3.32-.04,5.28Zm28.87-26.71c.48-11.7-8.94-17.38-18.52-14.88-9.8,2.55-13.92,16.34-7.41,24.77,1.18,1.53,2.76,2.95,4.45,3.88,8.66,4.75,22.08.21,21.48-13.76Z"/>
    <path class="cls-1" d="m518.81,103.2v13.85c0,7.16,0,14.32,0,21.48,0,4.86.17,5.08,4.85,5.98v12.71c-4.18-.19-8.4-.09-12.52-.68-2.48-.35-4.04-2.41-4.68-5.01-.18-.74-.89-1.36-1.36-2.03-.59.49-1.39.87-1.72,1.49-3.36,6.31-9.11,8.18-15.58,7.67-11.78-.92-19.39-7.81-21.82-19.5-1.85-8.91-1.55-17.71,2.95-25.93,5.07-9.27,15.39-13.63,25.51-10.86,3.36.92,5.93,2.88,7.88,5.76.5.74,1.37,1.23,2.06,1.83.25-.15.5-.31.75-.46,0-1.56-.15-3.14.07-4.67.09-.61.98-1.55,1.53-1.57,3.9-.14,7.8-.07,12.07-.07Zm-13.49,27.15c-.27-1.97-.35-3.98-.84-5.89-1.25-4.9-4.29-8.32-9.31-9.35-5.39-1.1-10.28,0-13.67,4.79-3.33,4.7-3.29,10.03-2.23,15.33,1.71,8.55,10.33,12.96,18.18,9.35,6.02-2.77,7.68-8.08,7.87-14.23Z"/>
    <path class="cls-1" d="m318.34,103.19c0,8.44,0,16.43,0,24.41,0,4.16-.02,8.33.01,12.49.02,2.35.82,4.02,3.56,4.19.52.03,1.39.93,1.41,1.45.13,3.24.14,6.49,0,9.73-.03.56-1,1.51-1.57,1.53-3.07.14-6.16.16-9.24.02-3.23-.16-5.55-2.35-6.49-5.63-.2-.69-.81-1.25-1.24-1.88-.6.47-1.44.82-1.76,1.43-3.28,6.21-8.91,8.07-15.3,7.79-14.35-.61-21.13-11.49-22.6-21.66-1.25-8.66-.73-17.1,3.99-24.81,5.27-8.6,15.13-12.51,24.83-9.91,3.46.92,6.08,2.93,8.06,5.9.42.63,1.36.92,2.06,1.37.21-.75.6-1.49.61-2.24.08-4.78-.36-4.15,4.4-4.19,2.98-.02,5.95,0,9.27,0Zm-13.76,27.12c0-1.16.11-2.34-.02-3.49-.76-7.04-5.04-11.45-12.32-12.03-5.22-.42-10.3,1.68-12.71,7.99-1.84,4.81-1.8,9.8-.09,14.65,1.71,4.83,5.36,7.6,10.36,8.2,5.04.61,9.34-1.03,12.36-5.35,2.1-3,2.61-6.41,2.42-9.96Z"/>
    <path class="cls-1" d="m801.63,103.19c4.63,0,8.94-.12,13.24.05,2.35.09,3.04-.77,2.99-3-.11-5.66.02-11.32-.06-16.99-.02-1.8.53-2.55,2.43-2.46,2.91.13,5.83.13,8.74,0,1.85-.08,2.47.53,2.43,2.41-.1,5.83.04,11.66-.08,17.48-.04,2.02.69,2.58,2.61,2.54,5.49-.1,10.98-.03,16.91-.03,0,4.04.06,7.91-.09,11.77-.02.42-1.29,1.12-1.98,1.13-4.83.1-9.66.15-14.49.02-2.27-.06-3.02.64-2.97,2.97.15,6.99.04,13.99.06,20.98.01,3.23.91,4.11,4.19,4.14,3.66.03,7.33.07,10.99-.02,1.66-.04,2.44.38,2.36,2.22-.13,2.83-.1,5.66,0,8.49.05,1.56-.4,2.24-2.09,2.22-7.16-.07-14.32.03-21.48-.06-4.51-.05-7.37-3.03-7.44-7.95-.13-9.24-.05-18.48-.06-27.73,0-.83-.07-1.67,0-2.5.19-2.03-.61-2.83-2.7-2.76-3.83.12-7.66.02-11.49.03-1.22,0-2.08-.18-2.05-1.75.08-3.57.02-7.15.02-11.22Z"/>
    <path class="cls-1" d="m452.39,157.08c-3.92,0-7.82-.03-11.73.01-1.87.02-1.61-1.27-1.61-2.41,0-8.92.03-17.83-.03-26.75-.01-1.99-.13-4.02-.58-5.95-1.04-4.4-3.9-7.21-8.37-7.84-4.56-.64-8.59.59-11.35,4.65-2.49,3.65-2.62,7.84-2.66,12.01-.07,7.83-.09,15.67.02,23.5.03,2.17-.61,2.98-2.84,2.84-2.82-.18-5.67-.11-8.5-.02-1.67.06-2.4-.46-2.39-2.25.04-16.5.04-33,0-49.49,0-1.57.49-2.26,2.16-2.2,3.16.1,6.33.09,9.5,0,1.55-.04,2.08.61,2.02,2.07-.06,1.33-.08,2.67.04,4,.06.66.49,1.28.74,1.92.62-.43,1.47-.73,1.81-1.32,2.11-3.63,5.07-6.14,9.13-7.27,10.92-3.05,23.72,1.8,24.49,16.24.66,12.46.37,24.96.49,37.45,0,.15-.12.3-.35.83Z"/>
    <path class="cls-1" d="m47.62,115.4c-3.77,1.52-7.28,3.01-10.87,4.3-.53.19-1.67-.36-2.05-.9-2.86-4.06-7.32-5.76-11.98-4.43-2.05.58-3.75,1.59-3.89,3.95-.14,2.44,1.55,3.72,3.57,4.17,4.13.91,8.39,1.29,12.49,2.31,2.94.73,5.83,1.91,8.51,3.34,9.36,4.99,8.44,20.88.15,26.39-5.13,3.41-10.82,4.23-16.64,4.27-5.71.04-11.22-1.3-16.04-4.67-3.75-2.62-6.39-6.06-7.46-10.55-.15-.65.23-1.97.68-2.13,3.65-1.33,7.37-2.47,11.15-3.69.28.54.46.89.63,1.25,2.59,5.46,6.32,7.74,12.33,7.38,1.64-.1,3.34-.27,4.89-.78,1.9-.63,3.34-1.99,3.46-4.15.12-2.23-1.29-3.76-3.19-4.28-3.5-.95-7.11-1.56-10.7-2.17-4.56-.77-8.93-1.96-12.63-4.89-5.66-4.49-6.63-15.63-1.04-21.86,8.61-9.59,31.7-9.46,38.08,5.71.16.38.28.77.53,1.45Z"/>
    <path class="cls-1" d="m148.82,137.76c3.79,7.47,7.82,9.56,15.92,8.4.97-.14,2.15-.35,2.76-.98,1.09-1.12,2.5-2.59,2.5-3.91,0-1.31-1.3-3.2-2.53-3.79-2.27-1.08-4.9-1.42-7.39-2.01-4.02-.95-8.21-1.43-12.06-2.84-11.41-4.17-11.19-19.14-4.55-25.26,9.34-8.62,27.61-7.33,35.08,2.88,1.06,1.45,1.82,3.12,2.92,5.03-4.05,1.63-7.77,3.19-11.56,4.57-.39.14-1.36-.65-1.75-1.22-2.68-3.98-7.72-5.74-12.28-4.16-1.83.63-3.37,1.7-3.49,3.79-.13,2.25,1.36,3.62,3.34,4.08,3.39.8,6.91,1.06,10.26,1.98,3.8,1.04,7.7,2.12,11.16,3.94,9.18,4.84,8.31,20.5.25,26.08-5.37,3.71-11.41,4.46-17.59,4.41-4.94-.04-9.72-1.21-14.04-3.82-4.46-2.7-7.56-6.47-8.81-11.59-.14-.58.39-1.79.88-1.97,3.58-1.3,7.23-2.42,10.97-3.63Z"/>
    <path class="cls-1" d="m622.1,116.15h-10.63q-6.37,0-6.37-6.39v-6.38h30.7c0,1.02,0,1.99,0,2.95,0,11.75.05,23.5-.04,35.24-.02,2.06.56,2.77,2.66,2.68,3.66-.15,7.33.01,11-.06,1.53-.03,2.07.53,2.04,2.03-.07,3-.06,6,0,9,.03,1.42-.57,1.88-1.93,1.88-14.58-.03-29.16-.03-43.74,0-1.41,0-1.92-.59-1.91-1.94.04-3,.05-6,0-9-.03-1.56.71-1.98,2.15-1.96,4.67.05,9.33.08,14-.05.71-.02,2-.87,2-1.34.12-8.73.09-17.47.09-26.65Z"/>
    <path class="cls-1" d="m738.66,103.34h30.68v2.9c0,11.74.06,23.49-.05,35.23-.02,2.26.71,2.88,2.86,2.78,3.58-.15,7.16.02,10.74-.07,1.6-.04,2.27.52,2.24,2.14-.07,2.91-.05,5.83,0,8.75.02,1.51-.64,2.03-2.11,2.02-14.49-.03-28.99-.03-43.48,0-1.5,0-2.07-.51-2.03-2.03.08-2.91.09-5.83,0-8.74-.05-1.64.54-2.18,2.16-2.15,4.58.08,9.16-.03,13.74.05,1.72.03,2.34-.52,2.32-2.28-.07-7.83-.07-15.66,0-23.49.02-1.74-.58-2.37-2.29-2.34-4.16.07-8.33-.04-12.49.04-1.69.03-2.38-.49-2.32-2.28.12-3.47.03-6.94.03-10.56Z"/>
    <path class="cls-1" d="m384.32,156.91h-47.58v-12.7c3.53,0,6.99,0,10.45,0,2,0,4.02.14,5.99-.09.67-.08,1.74-1.1,1.75-1.7.12-8.16.07-16.32.09-24.49,0-1.72-1.14-1.78-2.37-1.78-4.08,0-8.16-.08-12.24.02-1.82.04-2.55-.53-2.46-2.42.13-2.83.08-5.66.02-8.49-.03-1.42.36-2.11,1.96-2.1,8.83.06,17.66.08,26.49-.01,2-.02,2.08,1.03,2.07,2.51-.02,11.66-.01,23.32-.01,34.98q0,3.56,3.55,3.57c3.33,0,6.67.07,9.99-.03,1.66-.05,2.41.38,2.34,2.22-.13,3.4-.04,6.81-.04,10.51Z"/>
    <path class="cls-1" d="m628.93,76.75c5.7.09,10.41,4.89,10.28,10.45-.13,5.68-4.95,10.39-10.49,10.26-5.77-.13-10.21-4.71-10.16-10.48.05-5.78,4.66-10.33,10.38-10.24Z"/>
    <path class="cls-1" d="m772.81,87.2c-.08,5.64-4.89,10.37-10.46,10.27-5.73-.1-10.34-4.81-10.24-10.47.1-5.74,4.8-10.36,10.43-10.25,5.7.11,10.34,4.83,10.27,10.45Z"/>
  </g>
</svg>